<svg width="18" height="25" viewBox="0 0 18 25" fill="#ffffff" xmlns="http://www.w3.org/2000/svg">
  <path
    d="M17.1038 13.2719C16.5549 12.5648 15.7266 12.0791 14.6189 11.8151C16.0295 11.0983 16.6494 9.88172 16.4792 8.16518C16.4223 7.54272 16.2496 7.00326 15.9607 6.54599C15.6717 6.08863 15.2816 5.72094 14.789 5.44279C14.2968 5.16429 13.7615 4.95228 13.1844 4.80611C12.607 4.65995 11.9442 4.55382 11.1964 4.48788V0.923096H9.00982V4.38883C8.63118 4.38883 8.05376 4.39825 7.27759 4.41712V0.923096H5.09075V4.48788C4.77826 4.49734 4.31921 4.50215 3.71339 4.50215L0.703125 4.48788V6.80785H2.27918C2.99864 6.80785 3.4199 7.12856 3.54294 7.76975V11.8297C3.63774 11.8297 3.71339 11.8345 3.77023 11.844H3.54294V17.5304C3.4673 18.0112 3.19281 18.2519 2.71943 18.2519H1.14348L0.703224 20.8406H3.54319C3.72308 20.8406 3.98325 20.843 4.32418 20.8473C4.66492 20.852 4.9204 20.8544 5.09085 20.8544V24.4616H7.27804V20.8968C7.67552 20.9065 8.25295 20.9111 9.01026 20.9111V24.4616H11.1969V20.8544C11.9733 20.8168 12.6619 20.7464 13.2628 20.6423C13.8639 20.5382 14.4391 20.3758 14.9881 20.154C15.5369 19.9325 15.996 19.6565 16.3651 19.3264C16.7345 18.9967 17.0395 18.5768 17.2813 18.0675C17.5223 17.5581 17.6763 16.9687 17.7424 16.299C17.866 14.9885 17.6529 13.9793 17.1038 13.2719ZM7.32012 6.96303C7.38642 6.96303 7.57337 6.96065 7.88103 6.95589C8.18884 6.95104 8.44433 6.94638 8.64784 6.94162C8.85141 6.93697 9.12595 6.94876 9.47161 6.97705C9.81711 7.00534 10.1082 7.04314 10.3448 7.09021C10.5813 7.13728 10.8419 7.21512 11.1256 7.32358C11.4099 7.43194 11.6369 7.56403 11.8071 7.7196C11.9777 7.87518 12.122 8.07332 12.2401 8.31382C12.3586 8.55427 12.4178 8.83009 12.4178 9.14125C12.4178 9.40533 12.3752 9.64588 12.2901 9.86289C12.2052 10.0798 12.0771 10.2613 11.9069 10.4075C11.7366 10.5537 11.5612 10.6812 11.3813 10.7895C11.2016 10.8979 10.9718 10.9852 10.6926 11.0511C10.4135 11.1172 10.1698 11.169 9.96164 11.2067C9.75335 11.2444 9.49309 11.2705 9.18065 11.2845C8.86817 11.2986 8.63143 11.3082 8.47059 11.3129C8.3096 11.3175 8.08957 11.3175 7.81021 11.3129C7.5308 11.3082 7.36771 11.3057 7.32027 11.3057V6.96298H7.32012V6.96303ZM13.2913 16.5962C13.2011 16.8132 13.0853 17.002 12.9435 17.1624C12.8013 17.3224 12.6143 17.464 12.3824 17.5865C12.1507 17.7092 11.9256 17.8081 11.7081 17.8835C11.4902 17.9593 11.2274 18.025 10.9201 18.0817C10.612 18.1384 10.3424 18.1782 10.1103 18.2019C9.87844 18.2256 9.60166 18.2443 9.27968 18.2586C8.95794 18.2725 8.70693 18.2797 8.52714 18.2797C8.34724 18.2797 8.12001 18.2771 7.84547 18.2725C7.57078 18.2681 7.39581 18.2657 7.32002 18.2657V13.4842C7.39567 13.4842 7.62052 13.4796 7.99452 13.47C8.36858 13.4605 8.67371 13.4561 8.91039 13.4561C9.14703 13.4561 9.47374 13.47 9.89042 13.4985C10.3067 13.5266 10.657 13.5688 10.9412 13.6254C11.2251 13.6821 11.5349 13.7692 11.8712 13.8872C12.2072 14.005 12.4795 14.1488 12.6878 14.3186C12.8961 14.4886 13.0711 14.7052 13.2131 14.9693C13.3554 15.2333 13.4263 15.5351 13.4263 15.8747C13.4263 16.1391 13.3814 16.3792 13.2913 16.5962Z"
    fill="#ffffff"
  />
</svg>