<svg width="12" height="6" viewBox="0 0 12 6" fill="none" xmlns="http://www.w3.org/2000/svg">
<path d="M11.6257 3.90393C11.6549 3.9537 11.6739 4.00876 11.6818 4.06592C11.6896 4.12309 11.686 4.18123 11.6713 4.23701C11.6565 4.2928 11.6309 4.34511 11.5958 4.39094C11.5608 4.43677 11.517 4.47522 11.467 4.50407C11.4171 4.53292 11.3619 4.5516 11.3047 4.55904C11.2475 4.56648 11.1893 4.56252 11.1337 4.54741C11.078 4.53229 11.0258 4.50631 10.9802 4.47096C10.9346 4.4356 10.8965 4.39158 10.868 4.34143L9.8627 2.60023C9.27042 2.9969 8.61909 3.29735 7.93289 3.49043L8.25079 5.29321C8.27091 5.40748 8.24483 5.52507 8.17827 5.62012C8.11171 5.71516 8.01013 5.77988 7.89587 5.80005C7.8706 5.80448 7.84501 5.80671 7.81936 5.80672C7.71661 5.80657 7.61718 5.77027 7.5385 5.70418C7.45982 5.63809 7.40691 5.54642 7.38902 5.44524L7.07632 3.67183C6.36027 3.77644 5.6328 3.77618 4.91682 3.67107L4.60417 5.44442C4.58632 5.54563 4.53342 5.63734 4.45474 5.70346C4.37606 5.76958 4.27661 5.80591 4.17384 5.80607C4.14821 5.80605 4.12263 5.80382 4.09738 5.7994C3.98311 5.77924 3.88152 5.71452 3.81496 5.61947C3.7484 5.52442 3.72232 5.40683 3.74246 5.29255L4.06041 3.48907C3.37503 3.29567 2.72451 2.99515 2.13295 2.59865L1.12178 4.35007C1.09345 4.40057 1.05537 4.44494 1.00975 4.48062C0.964139 4.51629 0.911896 4.54255 0.856054 4.55788C0.800213 4.57321 0.741883 4.5773 0.684448 4.56992C0.627014 4.56254 0.571616 4.54382 0.521468 4.51487C0.47132 4.48591 0.427419 4.44729 0.392311 4.40124C0.357203 4.35519 0.331586 4.30262 0.316946 4.2466C0.302307 4.19057 0.298935 4.13219 0.307027 4.07486C0.315119 4.01752 0.334513 3.96235 0.364086 3.91257L1.43033 2.06577C1.05844 1.74571 0.716465 1.39245 0.408656 1.01036C0.372048 0.965721 0.344635 0.914283 0.327997 0.859005C0.311359 0.803728 0.305825 0.745705 0.311714 0.688278C0.317603 0.630852 0.334799 0.57516 0.36231 0.52441C0.389821 0.47366 0.427104 0.428856 0.47201 0.39258C0.516916 0.356305 0.568556 0.329276 0.623956 0.313049C0.679356 0.296823 0.737419 0.291721 0.7948 0.298037C0.85218 0.304353 0.907744 0.321962 0.958288 0.34985C1.00883 0.377738 1.05336 0.415354 1.0893 0.460528C1.43094 0.885662 1.82083 1.26965 2.25113 1.60475C2.25458 1.60716 2.2577 1.6099 2.26103 1.61241C3.3288 2.44314 4.64623 2.88816 5.99903 2.87509C7.35149 2.88813 8.66859 2.44331 9.73621 1.61296C9.73911 1.61077 9.74179 1.60853 9.74474 1.6064C10.1759 1.2709 10.5665 0.886353 10.9087 0.460528C10.9819 0.371248 11.0875 0.314536 11.2024 0.302757C11.3172 0.290977 11.4321 0.325085 11.5219 0.397644C11.6117 0.470204 11.6692 0.57533 11.6819 0.690106C11.6945 0.804881 11.6612 0.919996 11.5894 1.01036C11.2809 1.39319 10.9382 1.74708 10.5655 2.06763L11.6257 3.90393Z" fill="white"/>
</svg>
