<svg width="18" height="26" viewBox="0 0 18 26" fill="#ffffff" xmlns="http://www.w3.org/2000/svg">
  <path
    d="M17.9342 14.9453C18.0479 14.5399 18.0002 14.0994 17.7835 13.7184L10.7611 1.3764C10.4642 0.854828 9.90004 0.531006 9.28732 0.531006C8.67799 0.531006 8.11608 0.851257 7.81805 1.36816L0.701692 13.7091C0.375155 14.2754 0.423134 14.9764 0.823896 15.4958L7.79547 24.5323C8.11354 24.9448 8.6128 25.1876 9.14254 25.1876H9.43154C9.96523 25.1876 10.4676 24.9415 10.7854 24.524L12.065 22.8761C12.3935 22.4446 12.2959 21.8351 11.8482 21.5212C11.4091 21.2133 10.797 21.3059 10.4747 21.7294L9.28648 23.2568L4.36218 16.8737L8.91789 18.5192C9.03953 18.5631 9.16738 18.5854 9.29494 18.5854C9.42279 18.5854 9.55092 18.5631 9.67256 18.5192L14.0183 16.9479L13.0974 18.113C12.7596 18.5568 12.8736 19.1855 13.3472 19.4901C13.786 19.7719 14.3747 19.6708 14.6877 19.2597L17.6074 15.5598C17.7843 15.3963 17.8995 15.1788 17.9342 14.9453ZM8.20667 16.0127L4.42794 14.6476L8.20667 13.2828V16.0127ZM10.3742 13.2801L14.1557 14.6476L10.3742 16.0151V13.2801ZM14.9285 12.6769L10.3742 11.0301V4.67285L14.9285 12.6769ZM8.20667 4.63028V11.0328L3.54344 12.717L8.20667 4.63028Z"
    fill="#ffffff"
  />
</svg>