<svg width="24" height="21" viewBox="0 0 24 21" fill="#ffffff" xmlns="http://www.w3.org/2000/svg">
  <path
    d="M14.5141 20.9943V13.0544C19.6779 12.7874 23.5633 11.6276 23.5634 10.238C23.5634 8.84862 19.6779 7.68898 14.5144 7.42165L14.5141 5.20745H20.9612V0.599365H3.33249V5.20745H9.77887V7.43228C4.70988 7.71819 0.917969 8.86545 0.917969 10.238C0.917969 11.6108 4.70988 12.7582 9.77887 13.0437V20.9943H14.5141Z"
    fill="#ffffff"
  />
  <path
    d="M14.5147 7.92676V10.6221C13.7865 10.6577 13.0249 10.6772 12.2408 10.6772C11.3888 10.6772 10.5642 10.6545 9.77978 10.6119V8.45999H9.77929V7.93501C5.42754 8.13884 2.20605 8.87114 2.20605 9.74345C2.20605 10.7739 6.69874 11.6086 12.2409 11.6086C17.7828 11.6086 22.2758 10.7739 22.2758 9.74345C22.2757 8.85828 18.9611 8.11805 14.5147 7.92676Z"
    fill="white"
  />
</svg>