<svg width="18" height="19" viewBox="0 0 18 19" fill="#ffffff" xmlns="http://www.w3.org/2000/svg">
  <path
    d="M8.80375 7.96137C6.39664 7.96137 4.16003 5.86463 0.489172 2.05828C0.00896303 1.56028 0.0417534 0.784246 0.562412 0.32499C1.08315 -0.134344 1.89454 -0.102977 2.37474 0.395023C5.34408 3.47402 7.52037 5.50817 8.80375 5.50817C10.0871 5.50817 12.2633 3.47402 15.2328 0.395023C15.713 -0.102899 16.5244 -0.134344 17.0451 0.32499C17.5658 0.784323 17.5985 1.56028 17.1183 2.05828C13.4475 5.86463 11.2109 7.96137 8.80375 7.96137Z"
    fill="#ffffff"
  />
  <path
    d="M15.9604 18.4447C15.6147 18.4448 15.4846 18.312 15.2318 18.0498C12.2625 14.9708 10.0862 12.9366 8.80279 12.9366C7.51941 12.9366 5.34319 14.9707 2.37377 18.0498C1.89356 18.5477 1.08218 18.5791 0.561436 18.1198C0.0407767 17.6605 0.00798619 16.8845 0.488196 16.3865C4.15906 12.5801 6.39568 10.4834 8.80279 10.4834C11.2099 10.4834 13.4465 12.5801 17.1174 16.3865C17.9683 17.2859 17.121 18.536 15.9604 18.4447Z"
    fill="#ffffff"
  />
</svg>