<svg width="173" height="123" viewBox="0 0 173 123" fill="none" xmlns="http://www.w3.org/2000/svg">
<path d="M85 89.3937C124.765 89.3937 157 79.3692 157 67.0034C157 54.6377 124.765 44.6132 85 44.6132C45.2355 44.6132 13 54.6377 13 67.0034C13 79.3692 45.2355 89.3937 85 89.3937Z" fill="#050608" fill-opacity="0.5"/>
<path d="M134.183 29.3547L123.402 6.44653C121.315 2.41745 117.258 0 112.853 0H57.3248C52.8037 0 48.7464 2.41745 46.7756 6.56165L35.8787 29.4699C35.6469 29.9303 35.415 30.3908 35.415 30.9664V58.3642C35.415 64.6956 40.6316 69.8758 47.0075 69.8758H123.054C129.43 69.8758 134.646 64.6956 134.646 58.3642V30.8513C134.646 30.2757 134.531 29.8152 134.183 29.3547ZM104.854 27.2826V27.5129C103.231 27.5129 101.84 28.5489 101.492 30.1606C101.376 30.7361 98.5939 43.7443 85.0307 43.7443C71.5835 43.7443 68.6854 30.621 68.5695 30.1606C68.3376 28.5489 66.8306 27.5129 65.2076 27.5129H44.1094L52.6878 9.43956C53.4993 7.71281 55.2381 6.56165 57.2088 6.56165H112.737C114.591 6.56165 116.446 7.5977 117.258 9.20933L125.836 27.2826H104.854Z" fill="url(#paint0_linear)"/>
<path d="M2.45618 118.524V115.378H13.3242V118.524H2.45618ZM13.3242 110.274V113.442H2.45618V110.274H13.3242ZM13.3242 105.214V108.338H2.45618V105.214H13.3242ZM0.388184 103.212V121.978H2.45618V120.526H13.3242V121.978H15.4802V103.212H0.388184Z" fill="#F2F2F2"/>
<path d="M23.4222 115.884C23.4662 115.246 23.4882 114.608 23.4882 114.058V114.014H27.7782V115.884H23.4222ZM27.7782 110.56V112.452H23.4882V110.56H27.7782ZM29.7362 108.91H21.6402V114.036C21.6402 116.192 21.4862 119.008 20.0562 121.01C20.4962 121.23 21.2882 121.846 21.6182 122.176C22.5642 120.878 23.0262 119.162 23.2682 117.446H27.7782V119.932C27.7782 120.218 27.6902 120.306 27.3822 120.328C27.1182 120.35 26.1502 120.35 25.1822 120.306C25.4462 120.768 25.7322 121.56 25.8642 122.066C27.2502 122.066 28.2402 122.044 28.9002 121.714C29.5382 121.428 29.7362 120.922 29.7362 119.976V108.91ZM36.4462 119.734C36.4462 120.042 36.3362 120.13 35.9842 120.152C35.6542 120.174 34.4662 120.174 33.2342 120.13C33.5202 120.636 33.8722 121.516 33.9602 122.066C35.6102 122.088 36.7542 122.022 37.4802 121.692C38.2282 121.384 38.4702 120.834 38.4702 119.756V108.492H36.4462V119.734ZM33.9602 109.108H32.0682V118.062H33.9602V109.108ZM34.9942 105.28C35.6102 104.444 36.2262 103.476 36.8202 102.53L34.5982 101.848C34.1582 102.882 33.3882 104.246 32.6622 105.28H26.3262L27.4482 104.862C27.0742 104.026 26.1502 102.794 25.3362 101.914L23.4222 102.574C24.1042 103.388 24.8742 104.488 25.2482 105.28H20.2102V107.15H39.8122V105.28H34.9942Z" fill="#F2F2F2"/>
<path d="M58.6662 105.742C58.4902 107.964 58.2482 108.954 57.9402 109.24C57.7422 109.416 57.5442 109.438 57.1702 109.438C56.7522 109.438 55.7182 109.416 54.6842 109.328C54.9922 109.856 55.2342 110.648 55.2782 111.22C56.4222 111.264 57.5002 111.264 58.0722 111.198C58.7762 111.154 59.2162 111.022 59.6782 110.538C60.2282 109.922 60.5142 108.36 60.7782 104.686C60.8002 104.422 60.8222 103.872 60.8222 103.872H53.4522C53.5622 103.322 53.6502 102.75 53.7382 102.178L51.6482 101.914C51.2082 105.676 50.0422 108.69 47.7762 110.472C48.2602 110.758 49.1842 111.418 49.5142 111.77C51.1202 110.318 52.2642 108.272 53.0122 105.742H58.6662ZM48.2382 104.4C47.3802 103.608 45.5982 102.64 44.2122 102.068L43.0902 103.564C44.4982 104.202 46.2142 105.28 47.0722 106.072L48.2382 104.4ZM47.0502 110.142C46.1482 109.416 44.3442 108.47 42.9362 107.92L41.8582 109.46C43.2882 110.054 45.0482 111.066 45.9062 111.836L47.0502 110.142ZM46.5002 113.53C45.2902 116.038 43.7062 118.81 42.5842 120.504L44.3442 121.824C45.5762 119.778 46.9622 117.16 48.0402 114.872L46.5002 113.53ZM58.0502 113.948C57.3462 115.202 56.4002 116.28 55.2342 117.16C54.0682 116.236 53.1002 115.158 52.4182 113.948H58.0502ZM59.5462 112.012L59.1722 112.1H49.0962V113.948H51.7362L50.4822 114.388C51.2742 115.862 52.2862 117.16 53.5182 118.282C51.7582 119.25 49.7122 119.888 47.5342 120.262C47.9082 120.724 48.3702 121.56 48.5462 122.11C50.9662 121.582 53.2322 120.79 55.1902 119.602C56.8402 120.724 58.7762 121.56 60.9102 122.11C61.1962 121.538 61.7902 120.702 62.2522 120.262C60.3162 119.866 58.5122 119.206 56.9722 118.326C58.6882 116.874 60.0522 115.004 60.8882 112.584L59.5462 112.012Z" fill="#F2F2F2"/>
<path d="M79.1042 112.496H70.5242V110.604H79.1042V112.496ZM70.4582 116.126C70.5022 115.598 70.5242 115.07 70.5242 114.586V114.212H79.1042V116.126H70.4582ZM83.6362 106.6V104.686H72.6802C72.9882 103.938 73.2302 103.168 73.4722 102.42L71.3822 101.936C71.1402 102.838 70.8322 103.762 70.4582 104.686H64.4302V106.6H69.6002C68.2362 109.24 66.3662 111.682 63.9462 113.31C64.3642 113.706 64.9802 114.432 65.2882 114.894C66.4762 114.058 67.5322 113.068 68.4782 111.946V114.542C68.4782 116.588 68.3022 118.986 66.4542 120.68C66.8502 120.966 67.6642 121.824 67.9282 122.286C69.2262 121.098 69.9082 119.492 70.2382 117.842H79.1042V119.734C79.1042 120.064 78.9942 120.174 78.6202 120.174C78.2462 120.196 76.9262 120.196 75.6282 120.13C75.8922 120.68 76.2002 121.56 76.2662 122.11C78.0922 122.11 79.3242 122.11 80.0942 121.78C80.8862 121.472 81.1062 120.856 81.1062 119.756V108.8H70.7002C71.1182 108.096 71.4922 107.348 71.8662 106.6H83.6362Z" fill="#F2F2F2"/>
<path d="M105.46 104.862H96.9682L97.6062 104.62C97.2982 103.85 96.5942 102.618 96.0002 101.716L94.0642 102.376C94.5262 103.146 95.0322 104.114 95.3622 104.862H86.4962V106.842H105.46V104.862ZM98.3542 108.426C100.356 109.812 102.776 111.88 103.876 113.244L105.592 111.902C104.404 110.538 101.918 108.558 99.9602 107.26L98.3542 108.426ZM91.8422 107.326C90.5662 108.954 88.4102 110.604 86.4742 111.66C86.9362 111.99 87.7282 112.76 88.0802 113.156C89.9942 111.946 92.3262 109.966 93.8442 108.096L91.8422 107.326ZM99.1022 111.044C98.3982 112.914 97.3862 114.454 96.0662 115.73C94.7242 114.454 93.6902 112.914 92.9862 111.154L91.1382 111.726C92.0182 113.794 93.1402 115.532 94.5262 117.006C92.3042 118.59 89.4662 119.646 86.1222 120.306C86.5182 120.768 87.1342 121.67 87.3542 122.154C90.7422 121.318 93.6682 120.13 96.0442 118.348C98.3102 120.13 101.148 121.34 104.712 122C104.976 121.428 105.526 120.592 105.966 120.174C102.578 119.624 99.8062 118.568 97.6062 117.028C99.1022 115.576 100.29 113.816 101.17 111.66L99.1022 111.044Z" fill="#F2F2F2"/>
<path d="M113.072 107.964H123.148V109.812H113.072V107.964ZM113.072 104.598H123.148V106.38H113.072V104.598ZM114.48 113.112C114.898 112.562 115.294 112.034 115.668 111.462H125.238V102.926H111.07V111.462H113.27C111.906 113.398 109.882 115.092 107.814 116.236C108.276 116.566 109.046 117.292 109.376 117.688C110.52 116.94 111.73 115.994 112.852 114.894H115.404C113.974 117.094 111.862 118.964 109.596 120.196C110.058 120.548 110.806 121.274 111.136 121.67C113.622 120.086 116.086 117.688 117.714 114.894H120.2C119.166 117.402 117.56 119.58 115.624 120.988C116.064 121.274 116.9 121.912 117.23 122.264C119.276 120.548 121.146 117.93 122.312 114.894H124.622C124.292 118.326 123.896 119.822 123.456 120.218C123.236 120.438 123.038 120.482 122.664 120.482C122.268 120.482 121.322 120.482 120.31 120.372C120.618 120.856 120.816 121.604 120.86 122.11C121.938 122.176 122.972 122.176 123.566 122.11C124.226 122.066 124.71 121.89 125.172 121.428C125.854 120.724 126.316 118.788 126.756 113.948C126.8 113.662 126.844 113.112 126.844 113.112H114.48Z" fill="#F2F2F2"/>
<path d="M146.666 108.8V115.224C144.026 113.992 142.508 111.792 141.672 108.8H146.666ZM133.466 108.8H138.548C137.778 111.902 136.128 114.102 133.466 115.444V108.8ZM148.734 106.798H141.232C141.012 105.588 140.902 104.268 140.836 102.86H135.248V104.664H139.054C139.12 105.39 139.186 106.116 139.274 106.798H131.398V122.132H133.466V115.576C133.906 115.994 134.478 116.698 134.72 117.138C137.426 115.73 139.12 113.486 140.066 110.428C141.012 113.332 142.618 115.598 145.214 117.006C145.544 116.456 146.204 115.642 146.666 115.246V119.602C146.666 119.932 146.534 120.042 146.138 120.064C145.742 120.064 144.312 120.086 142.97 120.02C143.278 120.592 143.608 121.516 143.696 122.11C145.544 122.11 146.864 122.088 147.678 121.758C148.492 121.428 148.734 120.79 148.734 119.624V106.798Z" fill="#F2F2F2"/>
<path d="M154.828 105.698H169.106V108.118H171.174V103.85H163.54C163.276 103.19 162.858 102.376 162.484 101.76L160.372 102.222C160.636 102.728 160.9 103.3 161.12 103.85H152.826V108.118H154.828V105.698ZM163.628 107.656C165.608 108.888 168.028 110.736 169.172 111.946L170.646 110.626C169.436 109.394 166.95 107.634 165.036 106.49L163.628 107.656ZM158.216 106.468C157.028 108.03 155.026 109.526 153.09 110.45C153.508 110.802 154.212 111.616 154.498 111.99C156.5 110.868 158.722 109.042 160.13 107.128L158.216 106.468ZM158.084 114.762C159.558 113.728 160.922 112.518 162.066 111.198C163.408 112.628 164.794 113.772 166.334 114.762H158.084ZM157.82 119.646V116.566H166.136V119.646H157.82ZM161.736 108.448C159.69 111.704 155.884 114.322 151.858 115.752C152.32 116.192 152.87 116.896 153.156 117.402C154.058 117.05 154.96 116.61 155.818 116.148V122.132H157.82V121.45H166.136V122.066H168.226V115.884C169.04 116.302 169.898 116.742 170.778 117.116C171.064 116.544 171.614 115.862 172.098 115.422C168.622 114.124 165.608 112.452 163.144 109.768C163.276 109.592 163.408 109.416 163.518 109.218L161.736 108.448Z" fill="#F2F2F2"/>
<defs>
<linearGradient id="paint0_linear" x1="85.0307" y1="0" x2="85.0307" y2="69.8758" gradientUnits="userSpaceOnUse">
<stop stop-color="#62FFFF"/>
<stop offset="1" stop-color="#3EA9CC"/>
</linearGradient>
</defs>
</svg>
